<mxfile host="app.diagrams.net" modified="2023-07-31T15:41:56.261Z" agent="Mozilla/5.0 (Windows NT 10.0; Win64; x64) AppleWebKit/537.36 (KHTML, like Gecko) Chrome/115.0.0.0 Safari/537.36" etag="Ry1Bk8nV-XVyj9S9zNvc" version="21.6.6" type="device">
  <diagram name="Page-1" id="m-lqzq_GVKFRrsqRSyRw">
    <mxGraphModel dx="1376" dy="768" grid="1" gridSize="10" guides="1" tooltips="1" connect="1" arrows="1" fold="1" page="1" pageScale="1" pageWidth="850" pageHeight="1100" math="0" shadow="0">
      <root>
        <mxCell id="0" />
        <mxCell id="1" parent="0" />
        <mxCell id="L425znI3HY006VxVk61P-2" style="edgeStyle=orthogonalEdgeStyle;rounded=0;orthogonalLoop=1;jettySize=auto;html=1;" edge="1" parent="1" source="L425znI3HY006VxVk61P-1" target="L425znI3HY006VxVk61P-3">
          <mxGeometry relative="1" as="geometry">
            <mxPoint x="160" y="270" as="targetPoint" />
          </mxGeometry>
        </mxCell>
        <mxCell id="L425znI3HY006VxVk61P-1" value="" style="ellipse;whiteSpace=wrap;html=1;" vertex="1" parent="1">
          <mxGeometry x="100" y="130" width="120" height="80" as="geometry" />
        </mxCell>
        <mxCell id="L425znI3HY006VxVk61P-5" style="edgeStyle=orthogonalEdgeStyle;rounded=0;orthogonalLoop=1;jettySize=auto;html=1;" edge="1" parent="1" source="L425znI3HY006VxVk61P-3" target="L425znI3HY006VxVk61P-6">
          <mxGeometry relative="1" as="geometry">
            <mxPoint x="160" y="370" as="targetPoint" />
          </mxGeometry>
        </mxCell>
        <mxCell id="L425znI3HY006VxVk61P-3" value="call&amp;nbsp;g_cc_run" style="rounded=1;whiteSpace=wrap;html=1;" vertex="1" parent="1">
          <mxGeometry x="100" y="240" width="120" height="60" as="geometry" />
        </mxCell>
        <mxCell id="L425znI3HY006VxVk61P-4" value="Function: g_bsw_buttons_readClimate&#xa;&#xa;&#xa;&#xa;Description:&#xa;    This is the main climate state loop. it will first read buttons only to set last_fan_state accordingly.&#xa;    then will start the loop which ends when user chooses to. at each iteration, it will read the sensors and &#xa;    buttons, and based on the data will perform the logic for the climate control module.&#xa;&#xa;&#xa;&#xa;Parameters In:&#xa;    None&#xa;&#xa;&#xa;&#xa;Parameters Out:&#xa;    None&#xa;&#xa;&#xa;&#xa;Return Value:&#xa;    None" style="text;whiteSpace=wrap;" vertex="1" parent="1">
          <mxGeometry x="280" width="570" height="340" as="geometry" />
        </mxCell>
        <mxCell id="L425znI3HY006VxVk61P-7" style="edgeStyle=orthogonalEdgeStyle;rounded=0;orthogonalLoop=1;jettySize=auto;html=1;" edge="1" parent="1" source="L425znI3HY006VxVk61P-6" target="L425znI3HY006VxVk61P-8">
          <mxGeometry relative="1" as="geometry">
            <mxPoint x="160" y="500" as="targetPoint" />
          </mxGeometry>
        </mxCell>
        <mxCell id="L425znI3HY006VxVk61P-6" value="call&amp;nbsp;g_bsw_buttons_readClimate" style="rounded=1;whiteSpace=wrap;html=1;" vertex="1" parent="1">
          <mxGeometry x="45" y="370" width="230" height="60" as="geometry" />
        </mxCell>
        <mxCell id="L425znI3HY006VxVk61P-9" style="edgeStyle=orthogonalEdgeStyle;rounded=0;orthogonalLoop=1;jettySize=auto;html=1;" edge="1" parent="1" source="L425znI3HY006VxVk61P-12" target="L425znI3HY006VxVk61P-10">
          <mxGeometry relative="1" as="geometry">
            <mxPoint x="207" y="620" as="targetPoint" />
          </mxGeometry>
        </mxCell>
        <mxCell id="L425znI3HY006VxVk61P-8" value="declare and initialize last_fan_state with fan signal from climateStateButtons" style="rounded=1;whiteSpace=wrap;html=1;" vertex="1" parent="1">
          <mxGeometry x="97" y="470" width="220" height="60" as="geometry" />
        </mxCell>
        <mxCell id="L425znI3HY006VxVk61P-13" value="yes" style="edgeStyle=orthogonalEdgeStyle;rounded=0;orthogonalLoop=1;jettySize=auto;html=1;" edge="1" parent="1" source="L425znI3HY006VxVk61P-10" target="L425znI3HY006VxVk61P-14">
          <mxGeometry relative="1" as="geometry">
            <mxPoint x="207" y="900" as="targetPoint" />
          </mxGeometry>
        </mxCell>
        <mxCell id="L425znI3HY006VxVk61P-18" value="no" style="edgeStyle=orthogonalEdgeStyle;rounded=0;orthogonalLoop=1;jettySize=auto;html=1;" edge="1" parent="1" source="L425znI3HY006VxVk61P-10" target="L425znI3HY006VxVk61P-21">
          <mxGeometry relative="1" as="geometry">
            <mxPoint x="467" y="1320" as="targetPoint" />
          </mxGeometry>
        </mxCell>
        <mxCell id="L425znI3HY006VxVk61P-10" value="While true" style="rhombus;whiteSpace=wrap;html=1;" vertex="1" parent="1">
          <mxGeometry x="132" y="730" width="150" height="120" as="geometry" />
        </mxCell>
        <mxCell id="L425znI3HY006VxVk61P-11" value="" style="edgeStyle=orthogonalEdgeStyle;rounded=0;orthogonalLoop=1;jettySize=auto;html=1;" edge="1" parent="1" source="L425znI3HY006VxVk61P-8" target="L425znI3HY006VxVk61P-12">
          <mxGeometry relative="1" as="geometry">
            <mxPoint x="160" y="690" as="targetPoint" />
            <mxPoint x="160" y="530" as="sourcePoint" />
          </mxGeometry>
        </mxCell>
        <mxCell id="L425znI3HY006VxVk61P-12" value="" style="rhombus;whiteSpace=wrap;html=1;" vertex="1" parent="1">
          <mxGeometry x="187" y="600" width="40" height="40" as="geometry" />
        </mxCell>
        <mxCell id="L425znI3HY006VxVk61P-15" style="edgeStyle=orthogonalEdgeStyle;rounded=0;orthogonalLoop=1;jettySize=auto;html=1;" edge="1" parent="1" source="L425znI3HY006VxVk61P-14" target="L425znI3HY006VxVk61P-16">
          <mxGeometry relative="1" as="geometry">
            <mxPoint x="207" y="1040" as="targetPoint" />
          </mxGeometry>
        </mxCell>
        <mxCell id="L425znI3HY006VxVk61P-14" value="call&amp;nbsp;g_bsw_buttons_readClimate" style="rounded=1;whiteSpace=wrap;html=1;" vertex="1" parent="1">
          <mxGeometry x="102" y="930" width="210" height="60" as="geometry" />
        </mxCell>
        <mxCell id="L425znI3HY006VxVk61P-17" style="edgeStyle=orthogonalEdgeStyle;rounded=0;orthogonalLoop=1;jettySize=auto;html=1;" edge="1" parent="1" source="L425znI3HY006VxVk61P-16" target="L425znI3HY006VxVk61P-22">
          <mxGeometry relative="1" as="geometry">
            <mxPoint x="207" y="1150" as="targetPoint" />
          </mxGeometry>
        </mxCell>
        <mxCell id="L425znI3HY006VxVk61P-16" value="call&amp;nbsp;g_bsw_adc_readAllADC" style="rounded=1;whiteSpace=wrap;html=1;" vertex="1" parent="1">
          <mxGeometry x="112" y="1030" width="190" height="60" as="geometry" />
        </mxCell>
        <mxCell id="L425znI3HY006VxVk61P-21" value="" style="ellipse;whiteSpace=wrap;html=1;" vertex="1" parent="1">
          <mxGeometry x="457" y="750" width="120" height="80" as="geometry" />
        </mxCell>
        <mxCell id="L425znI3HY006VxVk61P-23" value="yes" style="edgeStyle=orthogonalEdgeStyle;rounded=0;orthogonalLoop=1;jettySize=auto;html=1;exitX=1;exitY=0.5;exitDx=0;exitDy=0;" edge="1" parent="1" source="L425znI3HY006VxVk61P-22" target="L425znI3HY006VxVk61P-24">
          <mxGeometry relative="1" as="geometry">
            <mxPoint x="407" y="1220" as="targetPoint" />
          </mxGeometry>
        </mxCell>
        <mxCell id="L425znI3HY006VxVk61P-32" value="no" style="edgeStyle=orthogonalEdgeStyle;rounded=0;orthogonalLoop=1;jettySize=auto;html=1;" edge="1" parent="1" source="L425znI3HY006VxVk61P-22" target="L425znI3HY006VxVk61P-33">
          <mxGeometry relative="1" as="geometry">
            <mxPoint x="207" y="1330" as="targetPoint" />
          </mxGeometry>
        </mxCell>
        <mxCell id="L425znI3HY006VxVk61P-22" value="if signal from climateStateButtons.off is false" style="rhombus;whiteSpace=wrap;html=1;" vertex="1" parent="1">
          <mxGeometry x="132" y="1160" width="150" height="120" as="geometry" />
        </mxCell>
        <mxCell id="L425znI3HY006VxVk61P-25" style="edgeStyle=orthogonalEdgeStyle;rounded=0;orthogonalLoop=1;jettySize=auto;html=1;" edge="1" parent="1" source="L425znI3HY006VxVk61P-24" target="L425znI3HY006VxVk61P-26">
          <mxGeometry relative="1" as="geometry">
            <mxPoint x="447" y="1310" as="targetPoint" />
          </mxGeometry>
        </mxCell>
        <mxCell id="L425znI3HY006VxVk61P-24" value="call&amp;nbsp;l_cc_runAC given last_fan_state&lt;span style=&quot;background-color: initial;&quot;&gt;&amp;nbsp;&lt;/span&gt;" style="rounded=1;whiteSpace=wrap;html=1;" vertex="1" parent="1">
          <mxGeometry x="377" y="1190" width="120" height="60" as="geometry" />
        </mxCell>
        <mxCell id="L425znI3HY006VxVk61P-27" style="edgeStyle=orthogonalEdgeStyle;rounded=0;orthogonalLoop=1;jettySize=auto;html=1;" edge="1" parent="1" source="L425znI3HY006VxVk61P-26" target="L425znI3HY006VxVk61P-28">
          <mxGeometry relative="1" as="geometry">
            <mxPoint x="437" y="1390" as="targetPoint" />
          </mxGeometry>
        </mxCell>
        <mxCell id="L425znI3HY006VxVk61P-26" value="call&amp;nbsp;l_cc_climateControl" style="rounded=1;whiteSpace=wrap;html=1;" vertex="1" parent="1">
          <mxGeometry x="362" y="1280" width="150" height="60" as="geometry" />
        </mxCell>
        <mxCell id="L425znI3HY006VxVk61P-29" style="edgeStyle=orthogonalEdgeStyle;rounded=0;orthogonalLoop=1;jettySize=auto;html=1;" edge="1" parent="1" source="L425znI3HY006VxVk61P-28" target="L425znI3HY006VxVk61P-30">
          <mxGeometry relative="1" as="geometry">
            <mxPoint x="437" y="1470" as="targetPoint" />
          </mxGeometry>
        </mxCell>
        <mxCell id="L425znI3HY006VxVk61P-28" value="call&amp;nbsp;l_cc_frontDemist" style="rounded=1;whiteSpace=wrap;html=1;" vertex="1" parent="1">
          <mxGeometry x="377" y="1360" width="120" height="60" as="geometry" />
        </mxCell>
        <mxCell id="L425znI3HY006VxVk61P-31" style="edgeStyle=orthogonalEdgeStyle;rounded=0;orthogonalLoop=1;jettySize=auto;html=1;entryX=1;entryY=0.5;entryDx=0;entryDy=0;" edge="1" parent="1" source="L425znI3HY006VxVk61P-30" target="L425znI3HY006VxVk61P-35">
          <mxGeometry relative="1" as="geometry">
            <mxPoint x="257" y="1550" as="targetPoint" />
            <Array as="points">
              <mxPoint x="437" y="1535" />
            </Array>
          </mxGeometry>
        </mxCell>
        <mxCell id="L425znI3HY006VxVk61P-30" value="call&amp;nbsp;l_cc_rearDemist" style="rounded=1;whiteSpace=wrap;html=1;" vertex="1" parent="1">
          <mxGeometry x="377" y="1440" width="120" height="60" as="geometry" />
        </mxCell>
        <mxCell id="L425znI3HY006VxVk61P-34" style="edgeStyle=orthogonalEdgeStyle;rounded=0;orthogonalLoop=1;jettySize=auto;html=1;" edge="1" parent="1" source="L425znI3HY006VxVk61P-33" target="L425znI3HY006VxVk61P-35">
          <mxGeometry relative="1" as="geometry">
            <mxPoint x="207" y="1480" as="targetPoint" />
          </mxGeometry>
        </mxCell>
        <mxCell id="L425znI3HY006VxVk61P-33" value="call&amp;nbsp;l_cc_turnClimateControlOFF&lt;span style=&quot;background-color: initial;&quot;&gt;&amp;nbsp;&lt;/span&gt;" style="rounded=1;whiteSpace=wrap;html=1;" vertex="1" parent="1">
          <mxGeometry x="107" y="1350" width="200" height="70" as="geometry" />
        </mxCell>
        <mxCell id="L425znI3HY006VxVk61P-36" style="edgeStyle=orthogonalEdgeStyle;rounded=0;orthogonalLoop=1;jettySize=auto;html=1;" edge="1" parent="1" source="L425znI3HY006VxVk61P-35" target="L425znI3HY006VxVk61P-37">
          <mxGeometry relative="1" as="geometry">
            <mxPoint x="207" y="1640" as="targetPoint" />
          </mxGeometry>
        </mxCell>
        <mxCell id="L425znI3HY006VxVk61P-35" value="" style="rhombus;whiteSpace=wrap;html=1;" vertex="1" parent="1">
          <mxGeometry x="177" y="1510" width="60" height="50" as="geometry" />
        </mxCell>
        <mxCell id="L425znI3HY006VxVk61P-40" style="edgeStyle=orthogonalEdgeStyle;rounded=0;orthogonalLoop=1;jettySize=auto;html=1;entryX=0.5;entryY=0;entryDx=0;entryDy=0;" edge="1" parent="1" source="L425znI3HY006VxVk61P-37" target="L425znI3HY006VxVk61P-39">
          <mxGeometry relative="1" as="geometry" />
        </mxCell>
        <mxCell id="L425znI3HY006VxVk61P-37" value="call&amp;nbsp;g_bsw_buttons_printState" style="rounded=1;whiteSpace=wrap;html=1;" vertex="1" parent="1">
          <mxGeometry x="117" y="1610" width="180" height="60" as="geometry" />
        </mxCell>
        <mxCell id="L425znI3HY006VxVk61P-41" style="edgeStyle=orthogonalEdgeStyle;rounded=0;orthogonalLoop=1;jettySize=auto;html=1;entryX=0.5;entryY=0;entryDx=0;entryDy=0;" edge="1" parent="1" source="L425znI3HY006VxVk61P-39" target="L425znI3HY006VxVk61P-42">
          <mxGeometry relative="1" as="geometry">
            <mxPoint x="207" y="1840" as="targetPoint" />
          </mxGeometry>
        </mxCell>
        <mxCell id="L425znI3HY006VxVk61P-39" value="call&amp;nbsp;g_bsw_pwm_setAllPWM" style="rounded=1;whiteSpace=wrap;html=1;" vertex="1" parent="1">
          <mxGeometry x="114.5" y="1720" width="185" height="60" as="geometry" />
        </mxCell>
        <mxCell id="L425znI3HY006VxVk61P-43" style="edgeStyle=orthogonalEdgeStyle;rounded=0;orthogonalLoop=1;jettySize=auto;html=1;" edge="1" parent="1" source="L425znI3HY006VxVk61P-42" target="L425znI3HY006VxVk61P-44">
          <mxGeometry relative="1" as="geometry">
            <mxPoint x="207" y="1960" as="targetPoint" />
          </mxGeometry>
        </mxCell>
        <mxCell id="L425znI3HY006VxVk61P-42" value="ask user if they want to continue" style="rounded=1;whiteSpace=wrap;html=1;" vertex="1" parent="1">
          <mxGeometry x="147" y="1850" width="120" height="60" as="geometry" />
        </mxCell>
        <mxCell id="L425znI3HY006VxVk61P-45" style="edgeStyle=orthogonalEdgeStyle;rounded=0;orthogonalLoop=1;jettySize=auto;html=1;" edge="1" parent="1" source="L425znI3HY006VxVk61P-44" target="L425znI3HY006VxVk61P-46">
          <mxGeometry relative="1" as="geometry">
            <mxPoint x="207" y="2040" as="targetPoint" />
          </mxGeometry>
        </mxCell>
        <mxCell id="L425znI3HY006VxVk61P-44" value="read command" style="rounded=1;whiteSpace=wrap;html=1;" vertex="1" parent="1">
          <mxGeometry x="147" y="1930" width="120" height="60" as="geometry" />
        </mxCell>
        <mxCell id="L425znI3HY006VxVk61P-47" value="yes" style="edgeStyle=orthogonalEdgeStyle;rounded=0;orthogonalLoop=1;jettySize=auto;html=1;" edge="1" parent="1" source="L425znI3HY006VxVk61P-46" target="L425znI3HY006VxVk61P-48">
          <mxGeometry relative="1" as="geometry">
            <mxPoint x="337" y="2040" as="targetPoint" />
          </mxGeometry>
        </mxCell>
        <mxCell id="L425znI3HY006VxVk61P-56" value="no" style="edgeStyle=orthogonalEdgeStyle;rounded=0;orthogonalLoop=1;jettySize=auto;html=1;entryX=0.5;entryY=0;entryDx=0;entryDy=0;" edge="1" parent="1" source="L425znI3HY006VxVk61P-46" target="L425znI3HY006VxVk61P-50">
          <mxGeometry relative="1" as="geometry" />
        </mxCell>
        <mxCell id="L425znI3HY006VxVk61P-46" value="if command is &#39;n&#39; or &#39;N&#39;" style="rhombus;whiteSpace=wrap;html=1;" vertex="1" parent="1">
          <mxGeometry x="137" y="2030" width="140" height="110" as="geometry" />
        </mxCell>
        <mxCell id="L425znI3HY006VxVk61P-55" style="edgeStyle=orthogonalEdgeStyle;rounded=0;orthogonalLoop=1;jettySize=auto;html=1;" edge="1" parent="1" source="L425znI3HY006VxVk61P-48" target="L425znI3HY006VxVk61P-58">
          <mxGeometry relative="1" as="geometry">
            <mxPoint x="377" y="2310" as="targetPoint" />
          </mxGeometry>
        </mxCell>
        <mxCell id="L425znI3HY006VxVk61P-48" value="stop the loop and break" style="rounded=1;whiteSpace=wrap;html=1;" vertex="1" parent="1">
          <mxGeometry x="317" y="2055" width="120" height="60" as="geometry" />
        </mxCell>
        <mxCell id="L425znI3HY006VxVk61P-57" style="edgeStyle=orthogonalEdgeStyle;rounded=0;orthogonalLoop=1;jettySize=auto;html=1;entryX=0;entryY=0.5;entryDx=0;entryDy=0;" edge="1" parent="1" source="L425znI3HY006VxVk61P-50" target="L425znI3HY006VxVk61P-12">
          <mxGeometry relative="1" as="geometry">
            <Array as="points">
              <mxPoint x="57" y="2250" />
              <mxPoint x="57" y="620" />
            </Array>
          </mxGeometry>
        </mxCell>
        <mxCell id="L425znI3HY006VxVk61P-50" value="clear terminal" style="rounded=1;whiteSpace=wrap;html=1;" vertex="1" parent="1">
          <mxGeometry x="147" y="2220" width="120" height="60" as="geometry" />
        </mxCell>
        <mxCell id="L425znI3HY006VxVk61P-58" value="" style="ellipse;whiteSpace=wrap;html=1;" vertex="1" parent="1">
          <mxGeometry x="317" y="2300" width="120" height="80" as="geometry" />
        </mxCell>
      </root>
    </mxGraphModel>
  </diagram>
</mxfile>
